<?xml version="1.0" standalone="no"?>
<!DOCTYPE svg PUBLIC "-//W3C//DTD SVG 20010904//EN"
 "http://www.w3.org/TR/2001/REC-SVG-20010904/DTD/svg10.dtd">
<svg version="1.0" xmlns="http://www.w3.org/2000/svg"
 width="1024.000000pt" height="1024.000000pt" viewBox="0 0 1024.000000 1024.000000"
 preserveAspectRatio="xMidYMid meet">

<g transform="translate(0.000000,1024.000000) scale(0.100000,-0.100000)"
fill="#000000" stroke="none">
<path d="M2237 9359 c-472 -54 -878 -301 -1137 -691 -118 -178 -191 -368 -231
-599 -18 -100 -26 -5621 -9 -5799 21 -220 73 -401 165 -578 75 -144 154 -250
270 -367 269 -268 620 -423 1028 -455 169 -13 5398 -13 5581 0 250 18 457 74
656 176 410 209 706 592 795 1028 8 43 20 137 26 210 6 86 9 1098 6 2926 l-3
2795 -21 110 c-62 317 -196 569 -423 795 -254 255 -580 410 -942 449 -116 13
-5653 13 -5761 0z m3621 -474 c82 -19 197 -75 264 -127 145 -114 338 -311 451
-462 43 -57 49 -104 16 -137 -17 -17 -28 -20 -57 -14 -71 13 -289 139 -502
288 -106 75 -139 83 -166 41 -37 -55 0 -381 77 -684 45 -176 157 -518 197
-600 l27 -55 75 -18 c312 -77 485 -140 543 -197 31 -32 37 -44 37 -80 0 -34
-6 -48 -32 -74 -72 -71 -390 -161 -793 -225 -358 -56 -1047 -64 -1485 -16
-463 51 -927 173 -983 259 -23 35 -21 92 4 128 35 48 211 116 466 179 92 22
173 46 180 52 6 7 30 57 53 112 53 126 215 451 308 617 295 527 513 779 802
927 99 50 165 75 241 90 71 14 209 12 277 -4z m-2388 -2338 c41 -14 118 -42
170 -62 215 -84 585 -158 950 -191 220 -20 823 -23 1050 -5 443 35 814 110
1122 227 l123 47 205 9 c113 5 311 8 440 6 234 -3 235 -3 297 -32 76 -35 153
-113 191 -193 l27 -58 0 -1870 0 -1870 -28 -56 c-34 -70 -119 -152 -192 -185
-30 -14 -59 -24 -64 -22 -14 5 -151 162 -151 173 0 6 41 36 90 67 106 68 130
100 130 176 0 59 -15 95 -57 133 -15 15 -143 81 -283 147 -140 65 -419 197
-620 293 -342 163 -369 174 -422 174 -64 -1 -97 -19 -135 -75 -33 -48 -29
-110 18 -290 101 -389 196 -802 185 -806 -6 -2 -916 -3 -2021 -2 l-2010 3 -57
23 c-102 41 -178 118 -222 225 l-21 52 -3 1804 c-1 1185 1 1823 8 1859 29 157
140 282 284 319 39 10 150 12 486 9 435 -4 435 -4 510 -29z m3575 -3550 c491
-232 586 -280 582 -290 -1 -4 -60 -45 -131 -90 -71 -45 -134 -90 -140 -99 -16
-26 -7 -37 227 -303 114 -130 207 -242 207 -250 0 -8 -51 -58 -112 -110 -87
-74 -118 -95 -138 -93 -18 2 -79 65 -237 247 -117 135 -219 249 -228 254 -28
15 -49 -2 -160 -128 -61 -69 -115 -125 -120 -125 -6 0 -37 111 -69 248 -32
136 -98 411 -147 611 -49 200 -89 370 -89 377 0 15 -1 15 555 -249z"/>
<path d="M5172 8013 c-10 -21 -34 -75 -52 -121 -36 -92 -25 -85 -165 -102
-120 -15 -133 -19 -141 -42 -12 -38 6 -63 91 -132 57 -47 85 -76 85 -90 0 -12
-9 -59 -20 -106 -26 -114 -26 -136 5 -156 24 -16 28 -15 130 45 57 33 109 61
115 61 6 0 57 -27 112 -60 56 -33 105 -60 109 -60 4 0 17 8 30 19 l23 18 -23
115 c-13 64 -21 123 -19 132 1 8 41 49 88 89 88 75 107 110 76 136 -8 7 -67
20 -131 30 -64 10 -120 22 -125 27 -5 5 -25 52 -45 104 -43 110 -57 130 -96
130 -23 0 -32 -7 -47 -37z"/>
<path d="M2843 5910 c-63 -38 -63 -40 -63 -452 0 -352 1 -375 20 -405 41 -68
-156 -63 2315 -63 2461 0 2284 -5 2325 62 19 32 20 49 20 408 0 359 -1 376
-20 408 -41 67 136 62 -2327 62 -2202 0 -2239 0 -2270 -20z m4405 -447 l-3
-248 -2121 -3 -2121 -2 -6 137 c-4 75 -7 187 -7 250 l0 113 2130 0 2130 0 -2
-247z"/>
<path d="M2860 4623 c-19 -7 -36 -13 -37 -13 -1 0 -11 -15 -22 -34 -20 -32
-21 -46 -21 -407 0 -353 1 -376 20 -406 41 -69 -158 -63 2322 -61 2461 3 2278
-2 2318 63 19 31 20 51 20 404 0 424 1 418 -76 453 -45 19 -70 19 -2267 16
-1730 -2 -2229 -6 -2257 -15z m4388 -449 l2 -241 -451 -6 c-249 -4 -1205 -7
-2125 -7 l-1673 0 -3 246 c-2 135 -1 248 1 250 2 2 959 3 2125 2 l2121 -3 3
-241z"/>
<path d="M2848 3284 c-62 -33 -77 -123 -29 -176 l29 -33 1079 2 c1033 3 1079
3 1103 21 56 42 56 124 0 175 l-30 27 -1063 0 c-920 -1 -1066 -3 -1089 -16z"/>
</g>
</svg>
